<?xml version="1.0" encoding="UTF-8"?>
<svg width="91px" height="91px" viewBox="0 0 91 91" version="1.1" xmlns="http://www.w3.org/2000/svg" xmlns:xlink="http://www.w3.org/1999/xlink">
    <!-- Generator: Sketch 47.1 (45422) - http://www.bohemiancoding.com/sketch -->
    <title>Artboard 2</title>
    <desc>Created with Sketch.</desc>
    <defs>
        <polygon id="path-1" points="0 0.400604167 0 67 39 67 39 0.400604167"></polygon>
        <polygon id="path-3" points="0 67 33 67 33 0 0 0"></polygon>
    </defs>
    <g id="Page-1" stroke="none" stroke-width="1" fill="none" fill-rule="evenodd">
        <g id="Artboard-2">
            <g id="Page-1" transform="translate(26.000000, 12.000000)">
                <g id="Group-3">
                    <mask id="mask-2" fill="white">
                        <use xlink:href="#path-1"></use>
                    </mask>
                    <g id="Clip-2"></g>
                    <path d="M16.6145571,61.4497014 C10.4971286,61.4497014 5.53855714,56.4805347 5.53855714,50.3500347 C5.53855714,47.1452014 6.89334286,44.1730069 9.23148571,42.0755347 L11.0765571,40.4200764 L11.0765571,11.5002708 C11.0765571,8.43502083 13.5558429,5.94950694 16.6145571,5.94950694 C19.6732714,5.94950694 22.1525571,8.43409028 22.1525571,11.5002708 L22.1525571,40.4200764 L23.9976286,42.0755347 C26.3357714,44.1730069 27.6914857,47.1452014 27.6914857,50.3500347 C27.6905571,56.4805347 22.7319857,61.4497014 16.6145571,61.4497014 M27.6905571,37.9392153 L27.6905571,11.5002708 C27.6905571,5.36977083 22.7319857,0.400604167 16.6145571,0.400604167 C10.4971286,0.400604167 5.53855714,5.36977083 5.53855714,11.5002708 L5.53855714,37.9392153 C2.13905714,40.9886458 -0.000371428571,45.4180903 -0.000371428571,50.3500347 C-0.000371428571,59.5457847 7.43841429,67.0004653 16.6145571,67.0004653 C25.7907,67.0004653 33.2294857,59.5457847 33.2294857,50.3500347 C33.2294857,45.4180903 31.0900571,40.9886458 27.6905571,37.9392153" id="Fill-1" fill="#FF3B12" mask="url(#mask-2)"></path>
                </g>
                <mask id="mask-4" fill="white">
                    <use xlink:href="#path-3"></use>
                </mask>
                <g id="Clip-5"></g>
                <polygon id="Fill-4" fill="#FF3B12" mask="url(#mask-4)" points="14 55 20 55 20 22 14 22"></polygon>
                <path d="M16.5,42 C21.194668,42 25,45.8051193 25,50.499525 C25,55.1939306 21.194668,59 16.5,59 C11.805332,59 8,55.1939306 8,50.499525 C8,45.8051193 11.805332,42 16.5,42" id="Fill-6" fill="#FF3B12" mask="url(#mask-4)"></path>
            </g>
        </g>
    </g>
</svg>